<svg width="46" height="45" viewBox="0 0 46 45" fill="none" xmlns="http://www.w3.org/2000/svg">
<path d="M40.0049 8.0498H43.8418C44.2994 8.04992 44.6699 8.42129 44.6699 8.87891C44.6698 9.33642 44.2993 9.70691 43.8418 9.70703H41.7021L41.7529 9.78516C44.3275 13.7224 45.6023 18.397 45.377 23.1328L45.3506 23.5908C44.9942 28.8307 42.8091 33.7734 39.1836 37.5664L38.8291 37.9297C34.5312 42.2275 28.8004 44.5117 22.96 44.5117C20.3157 44.5117 17.6492 44.0433 15.082 43.082L14.5693 42.8838C14.1715 42.7237 13.9657 42.2891 14.082 41.8857L14.1104 41.8057V41.8047C14.2708 41.4067 14.7049 41.2016 15.1084 41.3184L15.1885 41.3457C22.9342 44.4618 31.7532 42.6607 37.6562 36.7578C44.35 30.064 45.59 19.6211 40.9268 11.6006L40.833 11.4395V12.7158C40.8329 13.1733 40.4624 13.5438 40.0049 13.5439C39.5472 13.5439 39.1759 13.1734 39.1758 12.7158V8.87891C39.1758 8.42122 39.5472 8.0498 40.0049 8.0498Z" fill="#F79328" stroke="#E5E5E5" stroke-width="0.1"/>
<path d="M18.2471 0.456055C22.2851 -0.318451 26.4175 0.019066 30.251 1.42969L31.0137 1.72656C31.4105 1.88932 31.6134 2.32479 31.4941 2.72754L31.4658 2.80762C31.303 3.20437 30.8676 3.40738 30.4648 3.28809L30.3848 3.25977C22.6063 0.0734156 13.7395 1.85521 7.7959 7.79883C1.04704 14.5477 -0.156351 25.1073 4.64355 33.1533L4.73633 33.3096V31.8779C4.73633 31.4202 5.10774 31.0488 5.56543 31.0488C6.02295 31.049 6.39364 31.4204 6.39355 31.8779V35.7949C6.39355 36.2525 6.02291 36.6238 5.56543 36.624H1.64746C1.18979 36.624 0.818359 36.2526 0.818359 35.7949C0.818377 35.3373 1.1898 34.9658 1.64746 34.9658H3.8291L3.77734 34.8887C1.15185 30.9285 -0.151247 26.21 0.0751953 21.4287L0.101562 20.9658C0.457943 15.7262 2.6432 10.7833 6.26855 6.99023L6.62402 6.62695C9.71444 3.53654 13.5826 1.43692 17.834 0.539062L18.2471 0.456055Z" fill="#F79328" stroke="#E5E5E5" stroke-width="0.1"/>
<path d="M20.5941 18.8551C20.7407 18.7827 20.9097 18.7716 21.0646 18.8239C21.2196 18.8764 21.3475 18.9884 21.4201 19.1351L24.3238 25.0061C24.3963 25.1528 24.4078 25.3225 24.3554 25.4775C24.3029 25.6322 24.1914 25.76 24.0451 25.8325C23.8985 25.905 23.7286 25.9164 23.5737 25.8641C23.4187 25.8117 23.2908 25.6996 23.2182 25.5529L20.3145 19.6819C20.2419 19.5352 20.2305 19.3656 20.2829 19.2105C20.3353 19.0555 20.4474 18.9276 20.5941 18.8551Z" fill="#F79328" stroke="#F79328" stroke-width="0.2"/>
<path d="M23.0658 17.6326C23.2124 17.5602 23.3814 17.549 23.5363 17.6014C23.6913 17.6538 23.8192 17.7659 23.8917 17.9126L26.7955 23.7836C26.868 23.9302 26.8795 24.0999 26.827 24.2549C26.7746 24.4096 26.6631 24.5374 26.5167 24.61C26.3701 24.6825 26.2003 24.6938 26.0454 24.6415C25.8903 24.5891 25.7625 24.477 25.6899 24.3304L22.7862 18.4594C22.7136 18.3127 22.7022 18.1431 22.7546 17.988C22.807 17.833 22.9191 17.7051 23.0658 17.6326Z" fill="#F79328" stroke="#F79328" stroke-width="0.2"/>
<path d="M11.8131 16.4924C11.4201 17.1672 11.0937 17.8789 10.8387 18.6173L10.8374 18.6168C9.52103 22.5108 11.7806 25.4784 12.9851 26.7106L14.5618 22.05L11.8131 16.4924ZM18.8484 9.36308C17.2036 10.4971 14.5177 12.5869 12.5983 15.2957L15.1193 20.3928L18.8484 9.36308ZM32.7596 35.0646C32.832 35.2112 32.8431 35.3803 32.7908 35.5351C32.7384 35.6902 32.6268 35.8189 32.48 35.8915C32.3334 35.9639 32.1632 35.9746 32.0082 35.9222C31.8536 35.8697 31.7257 35.7582 31.6532 35.6119L29.4902 31.2386C28.9642 30.2153 28.7761 29.0512 28.9517 27.914L28.9518 27.9118L29.1505 26.7982C29.2762 25.9205 29.1264 25.0253 28.7205 24.237L28.7188 24.2357L28.7196 24.2353L25.2583 17.2368C25.1857 17.0901 25.1743 16.9205 25.2267 16.7655C25.2791 16.6106 25.3905 16.483 25.537 16.4104C25.6837 16.3379 25.8533 16.3264 26.0084 16.3789C26.1634 16.4313 26.2913 16.5433 26.3639 16.69L27.9207 19.8378C30.6724 17.1596 32.4743 13.6321 33.1559 12.1792C31.3332 11.7721 26.2953 10.871 21.9767 12.0931C22.2925 13.437 22.5065 14.8028 22.6119 16.1794L22.611 16.1798C22.623 16.343 22.5705 16.5047 22.4636 16.6286C22.3567 16.7524 22.2044 16.8287 22.0413 16.8407C21.8781 16.8527 21.7168 16.7989 21.5929 16.6921C21.469 16.5851 21.3919 16.4334 21.3799 16.2701C21.1872 14.0508 20.73 11.8634 20.0241 9.7512L14.1543 27.0943C15.4603 26.8905 17.8728 26.2541 19.5057 24.27L17.8414 20.9051C17.7689 20.7585 17.7575 20.5887 17.8099 20.4338C17.8623 20.2787 17.9743 20.1509 18.121 20.0783C18.2678 20.0058 18.4374 19.9943 18.5924 20.0467C18.7473 20.0992 18.8754 20.2113 18.9479 20.3579L22.4101 27.3581C22.79 28.1592 23.4099 28.8221 24.1838 29.2547L25.1895 29.7726L25.1921 29.7735L25.379 29.8804C26.3026 30.4318 27.0437 31.2453 27.5067 32.2197L29.6697 36.5929C29.742 36.7394 29.7531 36.9086 29.7008 37.0634C29.6484 37.2184 29.5368 37.3472 29.3901 37.4197C29.2434 37.4923 29.0733 37.5029 28.9183 37.4505C28.7635 37.398 28.6357 37.2865 28.5632 37.1401L26.3998 32.766L26.2465 32.4736C25.8624 31.8078 25.304 31.2565 24.6292 30.8799L24.6287 30.8791L23.6191 30.351L23.6174 30.3497C22.6066 29.7991 21.796 28.9425 21.3024 27.9027L20.0975 25.4666C19.4645 26.136 18.7321 26.7029 17.9244 27.1438L17.5555 27.334C16.2198 27.9871 14.7652 28.361 13.2803 28.433L13.2488 28.4486L13.2204 28.4463L13.168 28.4417L13.161 28.4408L13.1536 28.439L13.0707 28.419L13.0581 28.4155L13.0943 28.3213L13.0576 28.4146L13.0101 28.3956L13.0049 28.3938C12.9689 28.3775 12.9347 28.3574 12.9025 28.3344L12.882 28.3195L12.8695 28.2941C12.6565 28.12 11.4243 27.0615 10.4522 25.3584C9.44519 23.594 8.71409 21.1321 9.68861 18.2502L9.79827 17.9389C10.9834 14.7327 13.5601 12.0702 15.5339 10.3846L16.0266 9.96882C17.1881 9.01265 18.4216 8.14687 19.7156 7.37838L19.7222 7.37404L19.7226 7.37492L19.8557 7.30911L19.8631 7.30652C19.9043 7.29333 19.9469 7.28536 19.9899 7.28087L20.0144 7.26875L20.0371 7.26841C20.0878 7.26792 20.1388 7.27333 20.1881 7.28522L20.1646 7.38295L20.1921 7.28655C20.2459 7.30177 20.2974 7.32429 20.3451 7.3536L20.3699 7.36855L20.3825 7.39394C20.4195 7.42078 20.4551 7.45023 20.4851 7.48479L20.4097 7.55041L20.4951 7.49837C20.5084 7.52009 20.5184 7.54349 20.5289 7.56665L20.535 7.5658L20.5691 7.64806C21.0004 8.70736 21.3627 9.7936 21.6591 10.8982C26.62 9.50729 32.255 10.6882 33.7966 11.0561L34.1936 11.1539L34.2024 11.1561L34.1701 11.2516L34.2028 11.157L34.2438 11.1716L34.2525 11.1738L34.2604 11.1786C34.2818 11.1906 34.302 11.2045 34.3218 11.2191L34.4245 11.2881L34.4302 11.2929L34.4984 11.3736L34.4993 11.3731C34.5566 11.4355 34.5949 11.513 34.6097 11.5963L34.5113 11.6134L34.6097 11.5985C34.6162 11.641 34.617 11.6841 34.6144 11.7269L34.6157 11.7274C34.617 11.7628 34.6118 11.7979 34.6069 11.833L34.6082 11.8335C34.6086 11.8638 34.6073 11.8943 34.603 11.9243L34.6012 11.9361L34.5959 11.9474L34.5809 11.9853C34.4922 12.2089 32.3892 17.3727 28.493 20.995L29.9205 23.881C30.3788 24.8596 30.5366 25.9546 30.3711 27.0257L30.3711 27.0279L30.1714 28.1421C30.0466 29.015 30.195 29.9053 30.5962 30.6905L32.7596 35.0646Z" fill="#F79328" stroke="#F79328" stroke-width="0.2"/>
</svg>
