<svg width="44" height="44" viewBox="0 0 44 44" fill="none" xmlns="http://www.w3.org/2000/svg">
<path d="M39.618 29.8846L29.7085 35.7556L25.9339 33.3703H30.6795C31.4059 33.3703 32.1025 33.0818 32.6162 32.5681C33.1298 32.0545 33.4183 31.3579 33.4183 30.6315C33.4183 29.9051 33.1298 29.2085 32.6162 28.6949C32.1025 28.1813 31.4059 27.8927 30.6795 27.8927H22.5278C21.5903 27.8872 20.6599 28.0561 19.7841 28.3907L13.445 31.2689V30.6315C13.445 30.4334 13.3663 30.2434 13.2262 30.1033C13.0861 29.9633 12.8961 29.8846 12.698 29.8846H7.2204C7.02229 29.8846 6.83231 29.9633 6.69223 30.1033C6.55215 30.2434 6.47345 30.4334 6.47345 30.6315V43.0806C6.47345 43.2787 6.55215 43.4687 6.69223 43.6088C6.83231 43.7489 7.02229 43.8276 7.2204 43.8276H12.698C12.8961 43.8276 13.0861 43.7489 13.2262 43.6088C13.3663 43.4687 13.445 43.2787 13.445 43.0806V42.3337H28.9267C29.9065 42.3353 30.8618 42.0268 31.6555 41.4523L42.2423 33.8683C42.6849 33.4868 42.9734 32.9572 43.054 32.3784C43.1347 31.7997 43.0019 31.2114 42.6804 30.7234C42.359 30.2355 41.8709 29.8812 41.3073 29.7268C40.7437 29.5725 40.1432 29.6285 39.618 29.8846V29.8846ZM11.9511 42.3337H7.96734V31.3785H11.9511V42.3337ZM41.3758 32.6782L30.7841 40.2422C30.2434 40.6322 29.5933 40.8414 28.9267 40.8398H13.445V32.9072L20.3567 29.785C21.0498 29.52 21.7858 29.3849 22.5278 29.3866H30.6795C31.0097 29.3866 31.3263 29.5178 31.5598 29.7512C31.7933 29.9847 31.9244 30.3013 31.9244 30.6315C31.9244 30.9617 31.7933 31.2783 31.5598 31.5118C31.3263 31.7453 31.0097 31.8764 30.6795 31.8764H23.3545C23.1924 31.8762 23.0346 31.9288 22.905 32.0261C22.7753 32.1235 22.6809 32.2604 22.6359 32.4161C22.591 32.5719 22.5979 32.738 22.6556 32.8895C22.7134 33.041 22.8188 33.1695 22.9561 33.2558L29.2952 37.2395C29.4128 37.3117 29.5481 37.35 29.6861 37.35C29.8241 37.35 29.9594 37.3117 30.077 37.2395L40.3849 31.1195C40.5867 31.0012 40.8264 30.9651 41.0541 31.0187C41.2819 31.0722 41.4803 31.2114 41.6083 31.4072C41.7364 31.6031 41.7841 31.8407 41.7418 32.0708C41.6994 32.3009 41.5702 32.5059 41.3808 32.6433L41.3758 32.6782Z" fill="#64D370"/>
<path d="M43.074 23.9089H41.3311C41.2053 19.3315 39.4474 14.9498 36.3746 11.5548C33.3019 8.15969 29.1168 5.97483 24.5746 5.39452C24.9911 4.92878 25.2639 4.35245 25.3601 3.73507C25.4563 3.1177 25.3718 2.48568 25.1167 1.9153C24.8616 1.34493 24.4468 0.860573 23.9225 0.52071C23.3982 0.180846 22.7868 0 22.1619 0C21.5371 0 20.9256 0.180846 20.4013 0.52071C19.877 0.860573 19.4623 1.34493 19.2072 1.9153C18.9521 2.48568 18.8676 3.1177 18.9637 3.73507C19.0599 4.35245 19.3328 4.92878 19.7493 5.39452C15.2058 5.97276 11.0189 8.15685 7.94497 11.5522C4.87104 14.9476 3.11277 19.3304 2.98779 23.9089H0.746947C0.548845 23.9089 0.358856 23.9875 0.218776 24.1276C0.0786959 24.2677 0 24.4577 0 24.6558C0 24.8539 0.0786959 25.0439 0.218776 25.184C0.358856 25.3241 0.548845 25.4027 0.746947 25.4027H43.074C43.2721 25.4027 43.4621 25.3241 43.6021 25.184C43.7422 25.0439 43.8209 24.8539 43.8209 24.6558C43.8209 24.4577 43.7422 24.2677 43.6021 24.1276C43.4621 23.9875 43.2721 23.9089 43.074 23.9089ZM22.1594 1.50043C22.5041 1.50043 22.8411 1.60265 23.1277 1.79416C23.4143 1.98567 23.6377 2.25787 23.7696 2.57634C23.9016 2.89481 23.9361 3.24524 23.8688 3.58333C23.8016 3.92141 23.6356 4.23196 23.3918 4.47571C23.1481 4.71945 22.8375 4.88545 22.4995 4.9527C22.1614 5.01995 21.8109 4.98543 21.4925 4.85352C21.174 4.7216 20.9018 4.49821 20.7103 4.2116C20.5188 3.92498 20.4166 3.58802 20.4166 3.24331C20.4166 2.78107 20.6002 2.33776 20.927 2.01091C21.2539 1.68405 21.6972 1.50043 22.1594 1.50043V1.50043ZM22.1594 6.72906C26.7617 6.73101 31.1821 8.52622 34.4826 11.7337C37.783 14.9412 39.7038 19.3085 39.8372 23.9089H4.48168C4.6151 19.3085 6.53584 14.9412 9.8363 11.7337C13.1368 8.52622 17.5572 6.73101 22.1594 6.72906V6.72906Z" fill="#64D370"/>
<path d="M18.1452 10.2695C16.0932 10.8505 14.1927 11.8719 12.5758 13.2626C10.959 14.6532 9.66481 16.3796 8.78343 18.3216C8.73386 18.4121 8.70358 18.5119 8.69449 18.6146C8.6854 18.7174 8.69771 18.8209 8.73062 18.9187C8.76354 19.0165 8.81636 19.1064 8.88575 19.1828C8.95513 19.2591 9.03959 19.3203 9.13378 19.3624C9.22798 19.4045 9.32988 19.4266 9.43305 19.4273C9.53622 19.4281 9.63843 19.4075 9.73323 19.3668C9.82804 19.3261 9.91338 19.2662 9.98389 19.1908C10.0544 19.1155 10.1085 19.0264 10.1429 18.9291C10.9364 17.187 12.0998 15.6387 13.5523 14.3918C15.0047 13.1448 16.7114 12.2292 18.5535 11.7086C18.648 11.6818 18.7363 11.6366 18.8133 11.5757C18.8904 11.5148 18.9546 11.4393 19.0025 11.3535C19.0504 11.2677 19.0809 11.1734 19.0923 11.0758C19.1036 10.9782 19.0957 10.8794 19.0689 10.7849C19.0421 10.6904 18.9969 10.6021 18.936 10.5251C18.8751 10.448 18.7995 10.3837 18.7138 10.3359C18.628 10.288 18.5336 10.2575 18.4361 10.2461C18.3385 10.2347 18.2397 10.2427 18.1452 10.2695V10.2695Z" fill="#64D370"/>
</svg>
