<svg width="34" height="42" viewBox="0 0 34 42" fill="none" xmlns="http://www.w3.org/2000/svg">
<path d="M5.49096 34.6502L6.0056 34.7425C6.13217 34.7653 7.40648 34.9853 9.16029 34.9853C11.7847 34.9853 15.4821 34.4924 18.0093 32.108C22.2253 28.1302 21.3749 20.5964 21.3367 20.2776L21.2744 19.7585L20.7597 19.6662C20.4438 19.6095 12.9721 18.323 8.7561 22.3009C4.54007 26.2786 5.3904 33.8124 5.42867 34.1312L5.49096 34.6502ZM17.0391 31.0797C14.3572 33.6102 9.92335 33.6704 7.66743 33.5084L13.9988 27.5347L18.7048 28.7558C18.2893 29.6125 17.7467 30.4121 17.0391 31.0797V31.0797ZM19.2384 27.4338L15.2128 26.3892L20.0081 21.8648C20.0265 23.2306 19.918 25.3843 19.2384 27.4338V27.4338ZM18.9791 20.8922L11.0619 28.3621L10.0131 23.0733C12.6666 20.8354 16.7708 20.7468 18.9791 20.8922ZM8.82687 24.3595L9.84777 29.5076L6.75604 32.4247C6.74068 30.4221 7.007 26.8815 8.82687 24.3595V24.3595Z" fill="#64D370"/>
<path d="M28.4134 6.83241C28.4134 5.00764 27.7026 3.2919 26.4123 2.00157C25.1227 0.710853 23.4069 0 21.581 0C21.0122 0 20.4468 0.0704917 19.9008 0.209307L20.2493 1.57928C20.6815 1.4693 21.1296 1.4136 21.581 1.4136C23.0291 1.4136 24.3897 1.97725 25.4125 3.00089C26.4361 4.02443 26.9998 5.38516 26.9998 6.83241V12.2201H20.2145V6.83269C20.2145 3.06525 17.1495 0.000282565 13.3821 0.000282565C9.61466 0.000282565 6.54969 3.06525 6.54969 6.83269V12.2201H0V38.466C0 40.4147 1.58531 42 3.53401 42H29.827C31.7757 42 33.361 40.4147 33.361 38.466V12.2201H28.4134V6.83241ZM7.96329 6.83279C7.96329 3.84481 10.3941 1.41398 13.3821 1.41398C16.3701 1.41398 18.8009 3.84481 18.8009 6.83279V12.2202H16.1622V6.8325C16.1622 6.16679 16.2812 5.51842 16.516 4.90558L15.1958 4.39998C14.8991 5.17482 14.7486 5.99329 14.7486 6.8325V12.2202H7.96329V6.83279ZM25.3506 38.466C25.3506 39.6352 24.3994 40.5864 23.2302 40.5864H3.53401C2.36477 40.5864 1.4136 39.6352 1.4136 38.466V13.6337H25.3506V38.466ZM29.827 40.5864H27.2778L29.3558 36.9648L31.1617 40.112C30.7971 40.4084 30.3325 40.5864 29.827 40.5864ZM28.649 13.6337V17.6389H30.0626V13.6337H31.9474V38.466C31.9474 38.5208 31.9447 38.575 31.9405 38.6288L30.0626 35.3562V19.5237H28.649V35.3562L26.7595 38.6494C26.7626 38.5886 26.7642 38.5275 26.7642 38.466V13.6337H28.649Z" fill="#64D370"/>
</svg>
