<svg width="42" height="42" viewBox="0 0 42 42" fill="none" xmlns="http://www.w3.org/2000/svg">
<path d="M28.5345 4.33978C29.7712 4.33979 31.2097 4.39325 32.4613 4.79486L32.5658 4.83783C32.6659 4.88813 32.7538 4.96123 32.8217 5.0517C32.912 5.17235 32.9632 5.31799 32.9672 5.46869C32.9711 5.61961 32.9273 5.76815 32.8431 5.89349C32.78 5.98751 32.6966 6.06557 32.599 6.12103L32.4974 6.16888C29.3819 7.35165 27.2045 10.5332 27.2045 13.9042C27.2047 18.376 30.7563 22.0115 35.1195 22.0117C36.7537 22.0117 38.0641 21.6486 39.2465 20.8701L39.3461 20.8154C39.449 20.7686 39.5622 20.7455 39.6761 20.7499C39.8279 20.756 39.9742 20.8101 40.0941 20.9033C40.214 20.9965 40.3018 21.1249 40.3451 21.2704C40.3775 21.3796 40.3835 21.4943 40.3636 21.6054L40.3353 21.7148C39.0945 25.3084 36.414 28.0832 33.0101 29.3837C33.8133 30.0193 34.4663 30.8247 34.9193 31.7441C35.385 32.6892 35.6284 33.7286 35.6302 34.7822V34.7831L35.6205 35.1396C35.4318 38.8028 32.3555 41.7245 28.6019 41.7245H7.4115C3.8527 41.7245 0.956421 38.8647 0.956421 35.3476L0.963257 35.0361C1.03822 33.4828 1.68641 32.0078 2.78845 30.9003L2.97205 30.7216C3.89376 29.8582 5.05021 29.2837 6.29822 29.0712C6.17496 28.5357 6.11108 27.988 6.11072 27.4384L6.12048 27.0527C6.32453 23.0914 9.65188 19.9316 13.7113 19.9316L14.0453 19.9394C14.7927 19.9725 15.5313 20.1161 16.2377 20.3652C15.9938 19.3515 15.8696 18.3123 15.8705 17.2695L15.8744 16.9365C16.0482 9.96103 21.6598 4.33978 28.5345 4.33978ZM13.7113 21.3876C10.3228 21.3876 7.5669 24.1027 7.56677 27.4384L7.57263 27.6972C7.60025 28.2987 7.71885 28.8932 7.92517 29.4599L7.94958 29.5429C7.96886 29.6262 7.974 29.7125 7.96326 29.7978C7.94882 29.9119 7.90687 30.0211 7.84216 30.1161C7.77758 30.211 7.69178 30.2894 7.59119 30.3447C7.51556 30.3861 7.43288 30.4141 7.34802 30.4267L7.26208 30.4345C5.96679 30.468 4.73503 31.0018 3.82458 31.9238H3.82361C2.91832 32.833 2.41125 34.0645 2.41248 35.3476L2.41833 35.6005C2.5525 38.1964 4.74039 40.2695 7.4115 40.2695H28.6019C31.6749 40.2695 34.174 37.8073 34.1742 34.7831C34.1742 31.8532 31.8286 29.4509 28.8881 29.3036L28.6019 29.2958C28.3236 29.2961 28.0459 29.3176 27.7709 29.3583L27.4965 29.4052C27.3078 29.4426 27.1117 29.4042 26.9515 29.2978C26.8315 29.218 26.739 29.1045 26.684 28.9736L26.641 28.8369C26.2414 26.8757 24.5171 25.4348 22.4984 25.3466L22.3021 25.3417C21.7428 25.3417 21.1893 25.4475 20.6703 25.6523L20.4506 25.746C20.3598 25.7873 20.2612 25.8097 20.1615 25.8115C20.0618 25.8132 19.9626 25.7939 19.8705 25.7558C19.7784 25.7177 19.6947 25.6613 19.6254 25.5898C19.5735 25.5362 19.5306 25.4747 19.4974 25.4081L19.4672 25.3398C18.5778 22.9766 16.265 21.3878 13.7113 21.3876ZM28.5345 5.79584C22.3557 5.79584 17.3268 10.9415 17.3265 17.2695V17.2704C17.3241 18.6353 17.5617 19.9897 18.0277 21.2724C19.0983 22.0024 19.9624 22.9958 20.5385 24.1562C21.1091 23.9769 21.7038 23.8861 22.3021 23.8867L22.5424 23.8915C24.9963 23.9907 27.1283 25.6019 27.8881 27.8769C29.0639 27.7577 30.2507 27.9352 31.3412 28.3915C34.2743 27.6344 36.7223 25.681 38.1801 23.0009C37.2527 23.3152 36.2482 23.4677 35.1195 23.4677C29.9514 23.4676 25.7487 19.1767 25.7484 13.9042C25.7484 10.6928 27.4316 7.62799 30.0219 5.83978C29.5168 5.80476 29.0111 5.79584 28.5345 5.79584Z" fill="#4B5359" stroke="#4B5359" stroke-width="0.1"/>
<path d="M36.2576 10.441C36.4505 10.441 36.6357 10.5175 36.7722 10.6539C36.9087 10.7903 36.986 10.9755 36.9861 11.1685V12.192L38.0613 11.8336H38.0623L38.2009 11.8033C38.3418 11.7869 38.4856 11.8125 38.614 11.8775C38.785 11.9641 38.9147 12.1146 38.9753 12.2964C39.036 12.4784 39.0232 12.6772 38.9382 12.8492C38.8533 13.0211 38.7035 13.1519 38.5222 13.2144L38.5212 13.2154L37.3923 13.5904L38.2195 14.8326L38.2859 14.9586C38.3395 15.0903 38.3536 15.236 38.325 15.3775C38.2867 15.566 38.1754 15.7317 38.0154 15.8384C37.8553 15.9452 37.6592 15.985 37.4705 15.9478C37.2819 15.9106 37.1161 15.7995 37.0085 15.6402H37.0076L36.2576 14.5142L35.5076 15.6402L35.5066 15.6392C35.4538 15.7192 35.3868 15.7887 35.3074 15.8423C35.2279 15.896 35.1387 15.9336 35.0447 15.9527C34.9507 15.9718 34.8536 15.9722 34.7595 15.9537C34.6654 15.9352 34.5757 15.8975 34.4958 15.8443C34.4162 15.7911 34.3479 15.7228 34.2947 15.6431C34.2414 15.5634 34.2039 15.4735 34.1853 15.3795C34.1669 15.2856 34.1674 15.189 34.1863 15.0953C34.1958 15.0481 34.2098 15.0017 34.2283 14.9576L34.2966 14.8316L35.1228 13.5904L33.9939 13.2154C33.9025 13.1859 33.8179 13.1382 33.7449 13.0757C33.6718 13.0133 33.6116 12.9369 33.5681 12.8511C33.5247 12.7653 33.499 12.6717 33.4919 12.5757C33.4849 12.48 33.4968 12.3837 33.5271 12.2925C33.5575 12.2015 33.6057 12.1169 33.6687 12.0445C33.7319 11.972 33.8091 11.9123 33.8953 11.8697C33.9815 11.8271 34.0756 11.8016 34.1716 11.7955C34.2669 11.7894 34.3625 11.8027 34.4529 11.8336H34.4539L35.53 12.192V11.1685C35.5301 10.9755 35.6065 10.7903 35.7429 10.6539C35.8794 10.5174 36.0646 10.441 36.2576 10.441Z" fill="#4B5359" stroke="#4B5359" stroke-width="0.1"/>
<path d="M3.71777 16.5422C3.91074 16.5422 4.09593 16.6187 4.23242 16.7551C4.36889 16.8915 4.44624 17.0767 4.44629 17.2697V18.2932L5.52148 17.9348H5.52246L5.66113 17.9045C5.80198 17.8881 5.94585 17.9137 6.07422 17.9787C6.24522 18.0653 6.3749 18.2158 6.43555 18.3976C6.49621 18.5796 6.48337 18.7784 6.39844 18.9504C6.31353 19.1223 6.16369 19.2531 5.98242 19.3156L5.98145 19.3166L4.85254 19.6916L5.67969 20.9338L5.74707 21.0598C5.76544 21.1037 5.77958 21.1496 5.78906 21.1965C5.80802 21.2904 5.80858 21.3876 5.79004 21.4816C5.77149 21.5754 5.73469 21.6648 5.68164 21.7443C5.62838 21.8241 5.5593 21.8933 5.47949 21.9465C5.39976 21.9996 5.30982 22.0364 5.21582 22.0549C5.12197 22.0733 5.02538 22.0728 4.93164 22.0539C4.83763 22.0348 4.74745 21.9972 4.66797 21.9435C4.62834 21.9167 4.59207 21.8856 4.55859 21.8517L4.46777 21.7414L3.71777 20.6154L2.96777 21.7414L2.9668 21.7404C2.91403 21.8204 2.847 21.8899 2.76758 21.9435C2.68812 21.9972 2.59885 22.0348 2.50488 22.0539C2.41088 22.0729 2.31384 22.0734 2.21973 22.0549C2.12561 22.0364 2.03586 21.9987 1.95605 21.9455C1.87642 21.8923 1.80806 21.824 1.75488 21.7443C1.70164 21.6646 1.66406 21.5747 1.64551 21.4807C1.62708 21.3868 1.62759 21.2902 1.64648 21.1965C1.65601 21.1493 1.66998 21.1029 1.68848 21.0588L1.75684 20.9328L2.58301 19.6916L1.4541 19.3166C1.36267 19.2871 1.27812 19.2394 1.20508 19.1769C1.13196 19.1145 1.07176 19.0381 1.02832 18.9523C0.984893 18.8665 0.959207 18.7729 0.952148 18.6769C0.945108 18.5811 0.95698 18.4849 0.987305 18.3937C1.01767 18.3027 1.06587 18.2181 1.12891 18.1457C1.19208 18.0732 1.26927 18.0135 1.35547 17.9709C1.44172 17.9283 1.53584 17.9028 1.63184 17.8967C1.72715 17.8906 1.82271 17.9039 1.91309 17.9348H1.91406L2.99023 18.2932V17.2697C2.99028 17.0767 3.06666 16.8915 3.20312 16.7551C3.33959 16.6186 3.52479 16.5422 3.71777 16.5422Z" fill="#4B5359" stroke="#4B5359" stroke-width="0.1"/>
<path d="M7.78503 2.30603C7.97799 2.30603 8.16319 2.38255 8.29968 2.51892C8.43615 2.65539 8.5135 2.84058 8.51355 3.03357V4.05701L9.58875 3.69861H9.58972L9.72839 3.66833C9.86926 3.65192 10.0131 3.67758 10.1415 3.74255C10.3125 3.82917 10.4422 3.97965 10.5028 4.1615C10.5635 4.34347 10.5506 4.54225 10.4657 4.71423C10.3808 4.88614 10.231 5.01701 10.0497 5.07947V5.08044L8.9198 5.45544L9.74695 6.69763L9.81335 6.82361C9.86702 6.95538 9.88105 7.10107 9.85242 7.24255C9.81421 7.43106 9.70285 7.59676 9.54285 7.70349C9.38278 7.81022 9.18667 7.85008 8.99792 7.81287C8.80936 7.77561 8.64354 7.66458 8.53601 7.50525H8.53503L7.78503 6.37927L7.03503 7.50525C6.92793 7.66577 6.76138 7.77698 6.57214 7.81482C6.43012 7.84321 6.28418 7.8282 6.15222 7.7738L6.02527 7.70642C5.8649 7.59931 5.75351 7.43265 5.7157 7.24353C5.67798 7.05436 5.71709 6.85814 5.8241 6.69763L6.65027 5.45544L5.52136 5.08044V5.07947C5.34011 5.01706 5.19031 4.88606 5.10535 4.71423C5.02043 4.54228 5.00664 4.34344 5.06726 4.1615C5.12793 3.97953 5.25842 3.82917 5.42957 3.74255C5.55776 3.67771 5.70102 3.65204 5.84167 3.66833L5.98132 3.69861L7.0575 4.05701V3.03357C7.05754 2.8406 7.13394 2.65539 7.27039 2.51892C7.40684 2.38247 7.59207 2.3061 7.78503 2.30603Z" fill="#4B5359" stroke="#4B5359" stroke-width="0.1"/>
<path d="M39.6471 3.66187C40.0491 3.66187 40.3755 3.98747 40.3756 4.3894C40.3756 4.79142 40.0491 5.11792 39.6471 5.11792C39.2452 5.11782 38.9196 4.79136 38.9196 4.3894C38.9197 3.98753 39.2452 3.66196 39.6471 3.66187Z" fill="#4B5359" stroke="#4B5359" stroke-width="0.1"/>
<path d="M11.8527 13.8306C12.2546 13.8306 12.5811 14.1562 12.5812 14.5581C12.5812 14.9601 12.2547 15.2866 11.8527 15.2866C11.4507 15.2865 11.1251 14.9601 11.1251 14.5581C11.1252 14.1562 11.4508 13.8307 11.8527 13.8306Z" fill="#4B5359" stroke="#4B5359" stroke-width="0.1"/>
<path d="M22.0214 0.950195C22.4233 0.950195 22.7498 1.2758 22.7499 1.67773C22.7499 2.07975 22.4234 2.40625 22.0214 2.40625C21.6194 2.40615 21.2938 2.07969 21.2938 1.67773C21.2939 1.27586 21.6195 0.950292 22.0214 0.950195Z" fill="#4B5359" stroke="#4B5359" stroke-width="0.1"/>
<path d="M41.0029 27.3888C41.4049 27.3888 41.7313 27.7144 41.7314 28.1163C41.7314 28.5183 41.4049 28.8448 41.0029 28.8448C40.601 28.8448 40.2754 28.5183 40.2754 28.1163C40.2755 27.7145 40.6011 27.3889 41.0029 27.3888Z" fill="#4B5359" stroke="#4B5359" stroke-width="0.1"/>
</svg>
